<?xml version="1.0" standalone="no"?><!DOCTYPE svg PUBLIC "-//W3C//DTD SVG 1.1//EN" "http://www.w3.org/Graphics/SVG/1.1/DTD/svg11.dtd"><svg t="1751744737203" class="icon" viewBox="0 0 1024 1024" version="1.1" xmlns="http://www.w3.org/2000/svg" p-id="19421" xmlns:xlink="http://www.w3.org/1999/xlink" width="200" height="200"><path d="M398.1 73C376 57.4 345.6 62.6 330 84.6L83.4 432.7c-15.6 22-10.4 52.5 11.6 68.1 8.6 6.1 18.4 9 28.2 9 15.3 0 30.4-7.2 39.9-20.6l246.5-348.1c15.7-22 10.5-52.5-11.5-68.1zM929 523.1c-22-15.6-52.5-10.4-68.1 11.6L614.3 882.9c-15.6 22-10.4 52.5 11.6 68.1 8.6 6.1 18.4 9 28.2 9 15.3 0 30.4-7.2 39.9-20.6l246.5-348.1c15.7-22.1 10.5-52.6-11.5-68.2zM816 82.4c-22-15.6-52.5-10.4-68.1 11.7L197.1 871.8c-15.6 22-10.4 52.5 11.6 68.1 8.6 6.1 18.4 9 28.2 9 15.3 0 30.4-7.2 39.9-20.6l550.8-777.7c15.7-22.1 10.5-52.6-11.6-68.2z" p-id="19422" fill="#ffffff"></path></svg>